<svg width="16" height="16" viewBox="0 0 16 16" version="1.1" xmlns="http://www.w3.org/2000/svg" xmlns:xlink="http://www.w3.org/1999/xlink">
<title>instagram</title>
<desc>Created using Figma</desc>
<g id="Canvas" transform="translate(-14286 -663)">
<g id="ic/24/social/instagram">
<g id="Combined Shape">
<use xlink:href="#path0_fill" transform="translate(14288 665)" fill="#484848"/>
</g>
<mask id="mask0_outline" mask-type="alpha">
<g id="Combined Shape">
<use xlink:href="#path0_fill" transform="translate(14288 665)" fill="#FFFFFF"/>
</g>
</mask>
</g>
</g>
<defs>
<path id="path0_fill" fill-rule="evenodd" d="M 8.68848 0L 3.31152 0C 1.48535 0 0 1.4856 0 3.31152L 0 8.68848C 0 10.5144 1.48535 12 3.31152 12L 8.68848 12C 10.5146 12 12 10.5144 12 8.68848L 12 3.31152C 12 1.4856 10.5146 0 8.68848 0ZM 11.334 8.90527C 11.334 10.2441 10.2441 11.3335 8.90527 11.3335L 3.09473 11.3335C 1.75586 11.3335 0.666992 10.2441 0.666992 8.90527L 0.666992 3.09473C 0.666992 1.7561 1.75586 0.666748 3.09473 0.666748L 8.90527 0.666748C 10.2441 0.666748 11.334 1.7561 11.334 3.09473L 11.334 8.90527ZM 2.9082 6C 2.9082 4.29517 4.29492 2.90796 6 2.90796C 7.70508 2.90796 9.09277 4.29517 9.09277 6C 9.09277 7.70508 7.70508 9.09204 6 9.09204C 4.29492 9.09204 2.9082 7.70508 2.9082 6ZM 6 8.55981C 4.58887 8.55981 3.44043 7.41138 3.44043 6C 3.44043 4.58838 4.58887 3.43994 6 3.43994C 7.41211 3.43994 8.56055 4.58838 8.56055 6C 8.56055 7.41138 7.41211 8.55981 6 8.55981ZM 8.95703 1.8894C 9.05664 1.79004 9.19434 1.7334 9.33398 1.7334C 9.47461 1.7334 9.6123 1.79004 9.71094 1.8894C 9.81055 1.98853 9.86719 2.12622 9.86719 2.26685C 9.86719 2.40674 9.81055 2.54443 9.71094 2.64404C 9.64941 2.70557 9.57324 2.75073 9.49023 2.77612C 9.43945 2.79175 9.38672 2.80005 9.33398 2.80005C 9.19434 2.80005 9.05664 2.74292 8.95703 2.64404C 8.8584 2.54443 8.80078 2.40698 8.80078 2.26685C 8.80078 2.12622 8.8584 1.98853 8.95703 1.8894Z"/>
</defs>
</svg>
